<?xml version="1.0" encoding="UTF-8"?>
<svg width="20px" height="277px" viewBox="0 0 20 277" version="1.1" xmlns="http://www.w3.org/2000/svg" xmlns:xlink="http://www.w3.org/1999/xlink">
    <!-- Generator: Sketch 51.2 (57519) - http://www.bohemiancoding.com/sketch -->
    <title>icons</title>
    <desc>Created with Sketch.</desc>
    <defs></defs>
    <g id="Page-1" stroke="none" stroke-width="1" fill="none" fill-rule="evenodd">
        <g id="icons" fill="#FFFFFF">
            <g id="aa_book" transform="translate(2.000000, 0.000000)" fill-rule="nonzero">
                <path d="M14,2 L16,2 L16,18 L3,18 C1.34,18 0,16.66 0,15 L0,3 C0,1.34 1.34,0 3,0 L12,0 L12,14 L3,14 C2.45,14 2,14.45 2,15 C2,15.55 2.45,16 3,16 L14,16 L14,2 Z" id="Shape"></path>
            </g>
            <g id="aa_community_groups" transform="translate(2.000000, 21.000000)" fill-rule="nonzero">
                <path d="M6.03,2.46 C5.74,3.74 6.58,5.92 8,5.92 C9.41,5.92 10.25,3.74 9.96,2.46 C9.74,1.48 8.88,0.83 8,0.83 C7.11,0.83 6.26,1.48 6.03,2.46 Z M1.9,3.36 C1.65,4.44 2.37,6.29 3.57,6.29 C4.77,6.29 5.49,4.44 5.24,3.36 C5.05,2.53 4.32,1.97 3.57,1.97 C2.82,1.97 2.09,2.53 1.9,3.36 Z M10.76,3.36 C10.51,4.44 11.23,6.29 12.42,6.29 C13.62,6.29 14.34,4.44 14.09,3.36 C13.9,2.53 13.17,1.97 12.42,1.97 C11.68,1.97 10.95,2.53 10.76,3.36 Z M10.17,14.79 L11.42,10.49 C12.2,8 10.71,6.47 8,6.47 C5.28,6.47 3.79,8 4.56,10.49 L5.82,14.79 C6.05,15.51 7,16 8,16 C8.98,16 9.94,15.51 10.17,14.79 Z M4.07,7.16 C3.58,7.83 3.11,8.99 3.65,10.75 L4.77,14.54 C4.43,14.74 4,14.85 3.57,14.85 C2.72,14.85 1.92,14.44 1.72,13.82 L0.65,10.17 C-1.27675648e-15,8.06 1.26,6.77 3.57,6.77 C3.84,6.77 4.11,6.79 4.36,6.83 C4.26,6.93 4.16,7.05 4.07,7.16 Z M12.42,6.77 C14.73,6.77 16,8.06 15.34,10.17 L14.27,13.82 C14.07,14.44 13.27,14.85 12.42,14.85 C11.99,14.85 11.56,14.74 11.22,14.54 L12.33,10.77 C12.88,8.99 12.41,7.83 11.91,7.16 C11.83,7.05 11.73,6.93 11.63,6.83 C11.88,6.79 12.14,6.77 12.42,6.77 Z" id="Shape"></path>
            </g>
            <g id="aa_event_session" transform="translate(2.000000, 42.000000)" fill-rule="nonzero">
                <path d="M16,11 L16,1 C16,0.45 15.55,0 15,0 L1,0 C0.45,0 0,0.45 0,1 L0,11 C0,11.55 0.45,12 1,12 L15,12 C15.55,12 16,11.55 16,11 Z M8,3 C10.3,3 12.4,4.14 14,6 C12.4,7.86 10.3,9 8,9 C5.7,9 3.6,7.86 2,6 C3.6,4.14 5.7,3 8,3 Z M10,6 C10,4.9 9.1,4 8,4 C6.9,4 6,4.9 6,6 C6,7.1 6.9,8 8,8 C9.1,8 10,7.1 10,6 Z M12,14 L15,14 L15,15 L1,15 L1,14 L4,14 L4,13 L12,13 L12,14 Z" id="Shape"></path>
            </g>
            <g id="aa_experience_report" transform="translate(2.000000, 61.000000)" fill-rule="nonzero">
                <path d="M16,16 L16,0 L0,0 L0,16 L16,16 Z M14,3 L2,3 L2,2 L14,2 L14,3 Z M5,5 L5,8 L8,8 C8,9.66 6.66,11 5,11 C3.34,11 2,9.66 2,8 C2,6.34 3.34,5 5,5 Z M6,7 L6,5 C7.1,5 8,5.9 8,7 L6,7 Z M14,6 L10,6 L10,5 L14,5 L14,6 Z M14,9 L10,9 L10,7 L14,7 L14,9 Z M14,11 L10,11 L10,10 L14,10 L14,11 Z M14,14 L2,14 L2,13 L14,13 L14,14 Z" id="Shape"></path>
            </g>
            <g id="aa_glossary" transform="translate(4.000000, 83.000000)" fill-rule="nonzero">
                <path d="M1.5,3 C0.67,3 0,2.33 0,1.5 C0,0.68 0.67,0 1.5,0 C2.32,0 3,0.68 3,1.5 C3,2.33 2.32,3 1.5,3 Z M4,1 L13,1 L13,2 L4,2 L4,1 Z M1.5,8 C0.67,8 0,7.33 0,6.5 C0,5.68 0.67,5 1.5,5 C2.32,5 3,5.68 3,6.5 C3,7.33 2.32,8 1.5,8 Z M4,6 L13,6 L13,7 L4,7 L4,6 Z M1.5,13 C0.67,13 0,12.33 0,11.5 C0,10.68 0.67,10 1.5,10 C2.32,10 3,10.68 3,11.5 C3,12.33 2.32,13 1.5,13 Z M4,11 L13,11 L13,12 L4,12 L4,11 Z" id="Shape"></path>
            </g>
            <g id="aa_initiative" transform="translate(0.000000, 101.000000)" fill-rule="nonzero">
                <path d="M10,8 L2.54,5.02 L3,16 L1,16 L1.48,4.59 L0,4 L10,0 L20,4 L10,8 Z M10,3 C9.45,3 9,3.22 9,3.5 C9,3.78 9.45,4 10,4 C10.55,4 11,3.78 11,3.5 C11,3.22 10.55,3 10,3 Z M10,9 L15.57,6.77 C16.28,7.71 16.77,8.84 16.93,10.07 C16.63,10.03 16.32,10 16,10 C13.45,10 11.22,11.37 10,13.41 C8.78,11.37 6.55,10 4,10 C3.68,10 3.37,10.03 3.07,10.07 C3.23,8.84 3.72,7.71 4.43,6.77 L10,9 Z" id="Shape"></path>
            </g>
            <g id="aa_organizations" transform="translate(3.000000, 121.000000)" fill-rule="nonzero">
                <path d="M4.3,4 L4.27,3.81 C4.23,3.44 4.22,3.08 4.24,2.73 C4.26,2.37 4.34,2.02 4.49,1.69 C4.63,1.37 4.8,1.08 5.01,0.83 C5.22,0.58 5.5,0.37 5.84,0.23 C6.18,0.08 6.56,0 6.97,0 C7.66,0 8.23,0.2 8.68,0.59 C9.13,0.98 9.44,1.46 9.59,2.03 C9.74,2.6 9.77,3.19 9.68,3.81 L9.65,4 C9.64,4.09 9.6,4.25 9.54,4.48 C9.49,4.72 9.42,4.95 9.34,5.17 C9.26,5.38 9.15,5.62 9,5.89 C8.86,6.16 8.7,6.38 8.53,6.58 C8.35,6.77 8.13,6.92 7.86,7.06 C7.59,7.19 7.31,7.25 7,7.25 C6.69,7.25 6.41,7.19 6.13,7.06 C5.87,6.93 5.64,6.77 5.46,6.56 C5.28,6.36 5.12,6.14 4.97,5.9 C4.82,5.65 4.71,5.41 4.63,5.17 C4.54,4.92 4.47,4.7 4.42,4.5 C4.36,4.29 4.32,4.13 4.3,4 Z M13.5,10.24 C13.91,10.94 14,11.65 14,12.38 L14,14.87 C14,14.9 13.88,14.95 13.71,15 C13.53,15.04 13.29,15.13 12.74,15.27 C12.19,15.39 11.64,15.51 11.09,15.61 C10.54,15.71 9.9,15.8 9.14,15.88 C8.39,15.96 7.68,16 7.01,16 C6.33,16 5.62,15.96 4.87,15.88 C4.12,15.81 3.47,15.71 2.89,15.61 C2.31,15.5 1.81,15.38 1.33,15.27 C0.84,15.16 0.53,15.06 0.27,14.98 L0,14.87 L0,12.38 C0,11.63 0.07,10.92 0.46,10.23 C0.85,9.54 1.27,8.98 1.96,8.55 C2.66,8.12 4.19,8 5,8 L6.67,9.67 L6,11 L6,14 L7.02,15.08 L8,14 L8,11 L7.32,9.67 L8.97,8 C9.74,8 11.17,8.07 11.87,8.52 C12.58,8.97 13.08,9.54 13.5,10.24 Z" id="Shape"></path>
            </g>
            <g id="aa_research_paper" transform="translate(4.000000, 141.000000)" fill-rule="nonzero">
                <path d="M8,0 L12,4 L12,16 L0,16 L0,0 L8,0 Z M1,1 L1,2 L7,2 L7,1 L1,1 Z M8,4 L11,4 L8,1 L8,4 Z M1,3 L1,4 L7,4 L7,3 L1,3 Z M11,6 L11,5 L1,5 L1,6 L11,6 Z M11,8 L11,7 L1,7 L1,8 L11,8 Z M11,10 L11,9 L1,9 L1,10 L11,10 Z M7,12 L7,11 L1,11 L1,12 L7,12 Z" id="Shape"></path>
            </g>
            <g id="aa_story" transform="translate(1.000000, 160.000000)" fill-rule="nonzero">
                <path d="M9,0 C16,0 18,2.91 18,6.5 C18,10.09 16,13 9,13 C2,13 0,10.09 0,6.5 C0,2.91 2,0 9,0 Z M4.5,8 C5.33,8 6,7.33 6,6.5 C6,5.67 5.33,5 4.5,5 C3.67,5 3,5.67 3,6.5 C3,7.33 3.67,8 4.5,8 Z M9,8 C9.83,8 10.5,7.33 10.5,6.5 C10.5,5.67 9.83,5 9,5 C8.17,5 7.5,5.67 7.5,6.5 C7.5,7.33 8.17,8 9,8 Z M13.5,8 C14.33,8 15,7.33 15,6.5 C15,5.67 14.33,5 13.5,5 C12.67,5 12,5.67 12,6.5 C12,7.33 12.67,8 13.5,8 Z M5,13.5 C5.83,13.5 6.5,14.17 6.5,15 C6.5,15.83 5.83,16.5 5,16.5 C4.17,16.5 3.5,15.83 3.5,15 C3.5,14.17 4.17,13.5 5,13.5 Z M2,15.5 C2.55,15.5 3,15.95 3,16.5 C3,17.05 2.55,17.5 2,17.5 C1.45,17.5 1,17.05 1,16.5 C1,15.95 1.45,15.5 2,15.5 Z" id="Shape"></path>
            </g>
            <g id="aa_video" transform="translate(1.000000, 180.000000)" fill-rule="nonzero">
                <path d="M1,0 L17,0 C17.55,0 18,0.45 18,1 L18,17 L0,16.98 L0,1 C0,0.45 0.45,0 1,0 Z M5,1 L3,4 L4,4 L6,1 L5,1 Z M9,1 L8,1 L6,4 L7,4 L9,1 Z M12,1 L11,1 L9,4 L10,4 L12,1 Z M15,1 L14,1 L12,4 L13,4 L15,1 Z M16,15 L16,5 L2,5 L2,15 L16,15 Z M7,6 L13,10 L7,14 L7,6 Z" id="Shape"></path>
            </g>
            <g id="page" transform="translate(3.000000, 201.000000)" fill-rule="nonzero">
                <path d="M3,13 L3,0 L13,0 L13,13 L3,13 Z M2,14 L10,14 L10,16 L0,16 L0,3 L2,3 L2,14 Z" id="Shape"></path>
            </g>
            <g id="post" transform="translate(1.000000, 220.000000)" fill-rule="nonzero">
                <path d="M9.44,2.02 L11.26,0.2 L17.62,6.55 L15.79,8.37 C14.74,7.69 13.31,7.8 12.38,8.73 L11.63,9.48 C10.71,10.41 10.59,11.83 11.28,12.89 L9.45,14.71 L7.04,12.3 L4.24,15.09 C3.82,15.51 0.86,17.8 0.44,17.38 C0.02,16.96 2.3,13.99 2.72,13.57 L5.51,10.78 L3.1,8.36 L4.93,6.54 C5.98,7.23 7.41,7.11 8.33,6.18 L9.08,5.43 C10.01,4.51 10.13,3.08 9.44,2.02 Z" id="Shape"></path>
            </g>
            <g id="third-party-event" transform="translate(2.000000, 241.000000)" fill-rule="nonzero">
                <path d="M11,11.14 L12.17,5.2 C12.96,4.77 13.5,3.95 13.5,3 C13.5,1.62 12.38,0.5 11,0.5 C9.62,0.5 8.5,1.62 8.5,3 C8.5,3.95 9.04,4.77 9.83,5.2 L11,11.14 Z M11,1.5 C11.83,1.5 12.5,2.17 12.5,3 C12.5,3.83 11.83,4.5 11,4.5 C10.17,4.5 9.5,3.83 9.5,3 C9.5,2.17 10.17,1.5 11,1.5 Z M12.72,6.3 L16,4.97 L16,13.97 L11.12,16 L5,13.97 L8.8817842e-16,15.97 L8.8817842e-16,6.97 L5,4.97 L9.27,6.38 L11,13.68 L12.72,6.3 Z" id="Shape"></path>
            </g>
            <path d="M11.2644696,276.236289 C11.1316574,276.745403 10.6557473,276.999959 9.83673866,276.999959 C9.01773002,276.999959 8.53628586,276.734335 8.39240616,276.203086 C8.24852647,275.671838 8.09911276,274.963506 7.94416504,274.078091 C7.78921733,273.082 7.71174372,272.329398 7.71174372,271.820284 C7.71174372,270.846328 8.4200752,270.35935 9.83673866,270.35935 C11.2534021,270.35935 11.9617336,270.846328 11.9617336,271.820284 C11.9617336,272.329398 11.88426,273.082 11.7293123,274.078091 C11.5743646,274.963506 11.4194173,275.682905 11.2644696,276.236289 Z M6.11799752,267.703107 C6.11799752,268.632792 6.42789245,269.451801 7.04768281,270.160132 C7.1140889,270.248674 7.12515641,270.337215 7.08088585,270.425756 C6.90380311,270.669245 6.78205844,270.945938 6.71565235,271.255833 C6.69351682,271.344374 6.64371225,271.399712 6.56623864,271.421848 C6.48876504,271.443983 6.42789245,271.421848 6.38362189,271.355442 C5.87450869,270.890599 5.48160564,270.342749 5.20491376,269.711891 C4.92822188,269.081033 4.78987569,268.411438 4.78987569,267.703107 C4.78987569,266.795557 5.0112295,265.959947 5.45393661,265.196277 C5.89664372,264.432607 6.49983255,263.823884 7.26350261,263.370109 C8.02717266,262.916334 8.86278282,262.678379 9.77033257,262.656244 C10.6778823,262.634108 11.52456,262.849928 12.3103656,263.303703 C13.0961712,263.757478 13.721495,264.371735 14.1863377,265.146472 C14.6511803,265.92121 14.8836016,266.762354 14.8836016,267.669904 C14.8836016,268.400371 14.7452554,269.081033 14.4685636,269.711891 C14.1918717,270.342749 13.7989686,270.890599 13.2898554,271.355442 C13.2455849,271.421848 13.1847123,271.443983 13.1072387,271.421848 C13.0297651,271.399712 12.9799605,271.344374 12.957825,271.255833 C12.8914189,270.945938 12.7696742,270.669245 12.5925915,270.425756 C12.5483209,270.337215 12.5593884,270.248674 12.6257945,270.160132 C13.2455849,269.451801 13.5554798,268.632792 13.5554798,267.703107 C13.5554798,267.01691 13.3839306,266.391586 13.0408326,265.827135 C12.6977346,265.262683 12.232892,264.808908 11.6463047,264.46581 C11.0597173,264.122712 10.4343935,263.96223 9.77033257,263.984366 C9.10627165,264.006501 8.4920153,264.183584 7.92756352,264.515614 C7.36311174,264.847645 6.92040463,265.295886 6.59944169,265.860338 C6.27847874,266.424789 6.11799752,267.039046 6.11799752,267.703107 Z M9.8699417,260 C11.2866052,260 12.5925915,260.354166 13.7879011,261.062497 C14.9832108,261.770829 15.9294976,262.72265 16.6267615,263.917959 C17.3240255,265.113269 17.6726575,266.419255 17.6726575,267.835919 C17.6726575,269.429665 17.2354839,270.873998 16.3611372,272.168916 C15.4867905,273.463835 14.3412854,274.421189 12.9246219,275.04098 C12.8582158,275.063115 12.7973437,275.052047 12.7420052,275.007777 C12.6866666,274.963506 12.6589976,274.8971 12.6589976,274.808558 L12.8582158,273.712858 C12.8582158,273.646452 12.8914189,273.591113 12.957825,273.546843 C13.9760519,272.993458 14.79506,272.207653 15.4148504,271.189426 C16.0346407,270.1712 16.3445356,269.064432 16.3445356,267.869122 C16.3445356,266.673812 16.0512422,265.578112 15.4646549,264.58202 C14.8780676,263.585929 14.0867285,262.79459 13.0906371,262.208003 C12.0945458,261.621415 11.0099128,261.328122 9.83673866,261.328122 C8.66356454,261.328122 7.57893154,261.621415 6.58284017,262.208003 C5.58674879,262.79459 4.7954097,263.585929 4.20882239,264.58202 C3.62223508,265.578112 3.32894167,266.673812 3.32894167,267.869122 C3.32894167,269.064432 3.64990462,270.182268 4.29183,271.222629 C4.88948483,272.218721 5.69742544,272.993458 6.71565235,273.546843 C6.78205844,273.591113 6.81526149,273.646452 6.81526149,273.712858 L7.01447976,274.808558 C7.01447976,274.8971 6.98681073,274.963506 6.93147215,275.007777 C6.87613357,275.052047 6.81526149,275.063115 6.74885539,275.04098 C5.31005691,274.421189 4.15348381,273.452768 3.2791371,272.135713 C2.4047904,270.818659 1.97868431,269.363259 2.00081984,267.769513 C2.02295537,266.352849 2.38265487,265.046863 3.07991883,263.851553 C3.77718279,262.656244 4.7234696,261.715491 5.91877925,261.029294 C7.1140889,260.343098 8.43114322,260 9.8699417,260 Z M9.83673866,265.312487 C10.4343935,265.312487 10.9379732,265.51724 11.3474772,265.926744 C11.7569813,266.336248 11.9617336,266.839827 11.9617336,267.437482 C11.9617336,268.035137 11.7569813,268.538717 11.3474772,268.948221 C10.9379732,269.357725 10.4343935,269.562477 9.83673866,269.562477 C9.23908383,269.562477 8.73550414,269.357725 8.32600007,268.948221 C7.91649601,268.538717 7.71174372,268.035137 7.71174372,267.437482 C7.71174372,266.839827 7.91649601,266.336248 8.32600007,265.926744 C8.73550414,265.51724 9.23908383,265.312487 9.83673866,265.312487 Z" id=""></path>
        </g>
    </g>
</svg>