<svg xmlns="http://www.w3.org/2000/svg" width="340" height="90"><title>Artboard</title><g fill="none" fill-rule="evenodd"><path fill="#DBDBDB" d="M0 0h340v90H0z"/><g fill="#FFF" opacity=".7"><path d="M0 0h22.5v22.5H0z" opacity=".6"/><path d="M22.5 22.5H45V45H22.5z" opacity=".3"/><path d="M0 67.5h22.5V90H0zM45 0h22.6v22.5H45z" opacity=".6"/><path d="M45 22.5h22.6V45H45z" opacity=".1"/><path d="M45 45h22.6v22.5H45z" opacity=".3"/><path d="M45 67.5h22.6V90H45z" opacity=".6"/><path d="M67.6 0H90v22.5H67.7zm0 67.5H90V90H67.7z" opacity=".2"/><path d="M90.2 45h22.5v22.5H90.2z" opacity=".6"/><path d="M112.7 0h22.5v22.5h-22.5z" opacity=".3"/><path d="M112.7 22.5h22.5V45h-22.5z" opacity=".2"/><path d="M112.7 67.5h22.5V90h-22.5z" opacity=".6"/><path d="M135.2 0h22.5v22.5h-22.5z" opacity=".1"/><path d="M135.2 67.5h22.5V90h-22.5z" opacity=".2"/><path d="M157.8 0h22.5v22.5h-22.5z" opacity=".6"/><path d="M157.8 22.5h22.5V45h-22.5z" opacity=".2"/><path d="M180.3 45h22.5v22.5h-22.5zm22.5-22.5h22.5V45h-22.5zM225.4 45H248v22.5h-22.6z" opacity=".3"/><path d="M225.4 67.5H248V90h-22.6z" opacity=".2"/><path d="M248 67.5h22.4V90H248z" opacity=".1"/><path d="M270.5 0H293v22.5h-22.5z" opacity=".3"/><path d="M248 22.5h22.4V45H248z" opacity=".5"/></g></g></svg>
