<svg width="18" height="18" viewBox="0 0 18 18" xmlns="http://www.w3.org/2000/svg" xmlns:sketch="http://www.bohemiancoding.com/sketch/ns"><title>Imported Layers</title><desc>Created with Sketch.</desc><path d="M8.609 0c-2.673 0-5.06 1.215-6.638 3.124l-.001-.001v.002c-1.23 1.489-1.97 3.399-1.97 5.483 0 4.757 3.851 8.609 8.609 8.609 4.757 0 8.609-3.851 8.609-8.609 0-4.739-3.851-8.609-8.609-8.609zm-6.405 13.945l-.04-.048h.053l-.013.048zm-.157-.197c-1.089-1.388-1.749-3.127-1.777-5.016h3.869c.013 1.416.202 2.748.527 3.919-1.402.398-2.349.913-2.619 1.096zm2.634-9.287c-.344 1.218-.533 2.585-.542 4.005h-3.869c.032-1.912.711-3.669 1.828-5.063.34.211 1.262.681 2.583 1.057zm4.052.524c1.063-.019 2.255-.162 3.535-.505.34 1.18.537 2.539.546 3.987h-4.081v-3.482zm0-.256v-4.456c1.467.084 2.743 1.648 3.462 3.961-1.248.338-2.416.477-3.462.495zm-.266.003c-.89-.002-1.687-.087-2.359-.207-.395-.068-.761-.153-1.1-.243.714-2.33 1.99-3.912 3.459-4.009v4.459zm-2.537.025c.722.124 1.586.229 2.537.23v3.479h-4.063c.009-1.427.201-2.768.531-3.937.313.083.643.16.994.227zm-1.523 3.976h4.06v3.388c-.952.002-1.805.098-2.522.233-.362.066-.701.144-1.023.229-.326-1.174-.502-2.487-.516-3.85zm1.699 3.87c.677-.119 1.473-.205 2.361-.207v4.549c-1.048-.07-2.039-.914-2.804-2.425-.26-.509-.477-1.074-.659-1.674.34-.09.706-.175 1.102-.243zm2.627-.203c1.049.018 2.217.157 3.467.496-.179.581-.391 1.13-.644 1.625-.769 1.503-1.768 2.363-2.823 2.425v-4.546zm0-.277v-3.389h4.079c-.013 1.384-.196 2.714-.532 3.902-1.276-.348-2.472-.494-3.547-.513zm4.347-3.389h3.868c-.028 1.888-.687 3.627-1.777 5.014-.903-.453-1.784-.794-2.633-1.042.335-1.184.528-2.536.541-3.973zm-.002-.266c-.01-1.441-.2-2.826-.555-4.056.837-.239 1.708-.566 2.603-.998 1.113 1.392 1.789 3.146 1.821 5.054h-3.869zm1.866-5.275c-.856.421-1.692.741-2.496.974-.179-.577-.391-1.12-.644-1.61-.535-1.035-1.18-1.777-1.885-2.186 1.999.317 3.762 1.348 5.024 2.821zm-7.648-2.821c-.704.408-1.348 1.145-1.881 2.168-.257.509-.474 1.075-.658 1.676-.599-.171-1.093-.357-1.454-.506-.525-.221-.876-.419-1.031-.513 1.262-1.474 3.026-2.507 5.025-2.824zm-5.076 13.592c.121-.076.492-.297 1.081-.544.358-.147.849-.332 1.442-.502.565 1.873 1.483 3.298 2.578 3.934-2.036-.318-3.832-1.376-5.101-2.889zm7.677 2.889c1.086-.631 1.999-2.038 2.565-3.886.816.238 1.665.565 2.536.998-1.269 1.512-3.065 2.57-5.101 2.888z" sketch:type="MSShapeGroup" fill="#9B9B9B"/></svg>