<svg width="18" height="17" viewBox="0 0 18 17" xmlns="http://www.w3.org/2000/svg" xmlns:sketch="http://www.bohemiancoding.com/sketch/ns"><title>Shape</title><desc>Created with Sketch.</desc><path d="M15.145 12.25c-1.294-.647-.795-.152-2.383-.813-1.588-.661-1.964-.877-1.964-.877l-.014-1.515s.595-.453.78-1.887c.371.108.497-.437.517-.786.022-.336.22-1.386-.235-1.292.093-.7.166-1.334.133-1.669-.114-1.177-.923-2.405-2.967-2.495-1.737.09-2.865 1.319-2.979 2.496-.033.335.034.968.127 1.67-.454-.095-.259.956-.239 1.292.022.348.145.895.517.787.185 1.433.779 1.89.779 1.89l-.015 1.523s-.376.231-1.964.891c-1.588.662-1.09.137-2.383.783-2.044 1.022-2.044 3.833-2.044 3.833h16.378s0-2.811-2.044-3.833z" sketch:type="MSShapeGroup" fill="#477C9E"/></svg>