<?xml version="1.0" encoding="UTF-8" standalone="no"?>
<svg width="66px" height="41px" viewBox="0 0 66 41" version="1.1" xmlns="http://www.w3.org/2000/svg" xmlns:xlink="http://www.w3.org/1999/xlink" xmlns:sketch="http://www.bohemiancoding.com/sketch/ns">
    <!-- Generator: Sketch 3.3.3 (12081) - http://www.bohemiancoding.com/sketch -->
    <title>Lohgo - White</title>
    <desc>Created with Sketch.</desc>
    <defs>
        <path id="path-1" d="M0.795993096,5.11041407 C3.1516319,3.55278786 5.79937827,2.241211 8.66620531,1.28275099 L5.772254,0.309878049 C3.7379335,1.13965116 1.82567224,2.11046512 0.0459026163,3.18937606 L0.795993096,5.11041407 L0.795993096,5.11041407 Z"></path>
        <path d="M6.59432813,3.72780204 L4.2887649,9.94698242 L8.68707013,9.94698242 L6.59432813,3.72780204 L6.59432813,3.72780204 Z M10.2842725,14.3460153 L9.26293932,11.3604793 L3.75358212,11.3604793 L2.66026526,14.3460153 L0.380783067,14.3460153 L6.4117609,0.0247078843 L6.9500734,0.0247078843 L12.5397602,14.3460153 L10.2842725,14.3460153 L10.2842725,14.3460153 Z" id="path-3"></path>
        <path d="M4.9230556,2.21032615 C4.25120821,2.21032615 3.70454978,2.43578559 3.28099382,2.88567499 C2.85743786,3.33453488 2.64565988,3.88016733 2.64565988,4.52154282 C2.64565988,5.24013046 2.85117842,5.83517867 3.26117224,6.30771696 C3.67012282,6.77922575 4.22408394,7.01498015 4.9230556,7.01498015 C5.60637863,7.01498015 6.14051817,6.78643222 6.52651744,6.32727737 C6.91355996,5.86812252 7.10760283,5.26689733 7.10760283,4.52154282 C7.10760283,3.88016733 6.89895458,3.33453488 6.48270131,2.88567499 C6.0654048,2.43578559 5.54587064,2.21032615 4.9230556,2.21032615 L4.9230556,2.21032615 Z M0.831463299,14.0731991 L1.87574782,12.6041095 C2.99723219,13.3237266 4.03004106,13.6819909 4.9762609,13.6819909 C5.84841061,13.6819909 6.53590661,13.5399206 7.03874891,13.2557799 C7.54054797,12.9695803 7.79196911,12.6154339 7.79196911,12.1933409 C7.79196911,11.3594498 7.15872166,10.9435337 5.88805378,10.9435337 C5.67314608,10.9435337 5.28088735,10.9970675 4.7133641,11.100017 C4.14688408,11.206055 3.70454978,11.2575298 3.38636119,11.2575298 C1.84758031,11.2575298 1.076625,10.7016024 1.076625,9.59077708 C1.076625,9.24795519 1.25710574,8.93704765 1.61598074,8.66011344 C1.97589898,8.38214974 2.42136301,8.18139818 2.9544593,8.05888826 C1.42506759,7.37633296 0.66037173,6.19447249 0.66037173,4.51021838 C0.66037173,3.43027794 1.05680342,2.52844016 1.84758031,1.80882303 C2.63940044,1.0892059 3.61691751,0.728882587 4.78013154,0.728882587 C5.84841061,0.728882587 6.68404687,0.938899603 7.28704033,1.35687465 L8.25099528,0.257373795 L9.50914426,1.38673001 L8.35323292,2.21547362 C8.84668605,2.82699376 9.09184775,3.62485252 9.09184775,4.61007941 C9.09184775,5.65192853 8.75070785,6.52802893 8.06738481,7.23632161 C7.38406177,7.9425553 6.48791751,8.3492059 5.37895203,8.45215542 L3.7859226,8.59937323 C3.59605269,8.61893364 3.34254506,8.6899688 3.02435647,8.81144923 C2.70721112,8.93087067 2.5475952,9.08941293 2.5475952,9.28501702 C2.5475952,9.55371526 2.87934593,9.68652014 3.54284738,9.68652014 C3.83495494,9.68652014 4.2887649,9.63401588 4.90427725,9.53003687 C5.52083285,9.42502836 5.97881577,9.37252411 6.27613953,9.37252411 C7.34650509,9.37252411 8.18214135,9.61548497 8.78200509,10.0993477 C9.38082558,10.5852694 9.68127907,11.2575298 9.68127907,12.1192172 C9.68127907,13.0694413 9.23372856,13.8374447 8.33654106,14.422198 C7.4403968,15.0059217 6.30535029,15.2982984 4.93140153,15.2982984 C4.2282569,15.2982984 3.48651235,15.1799064 2.7092976,14.942093 C1.93103961,14.7032501 1.30509484,14.413962 0.831463299,14.0731991 L0.831463299,14.0731991 Z" id="path-5"></path>
        <path d="M2.99931868,0.11324447 C3.32898292,0.11324447 3.61065807,0.225459444 3.84330087,0.446800908 C4.07594368,0.669171866 4.19174346,0.933752127 4.19174346,1.24260068 C4.19174346,1.55762621 4.07594368,1.82632445 3.84330087,2.04869541 C3.61065807,2.27003687 3.32898292,2.38225184 2.99931868,2.38225184 C2.67487064,2.38225184 2.39632522,2.27003687 2.16368241,2.04869541 C1.93208285,1.82632445 1.81523983,1.55762621 1.81523983,1.24260068 C1.81523983,0.927575156 1.92895313,0.660935905 2.15846621,0.441653432 C2.38693605,0.223400454 2.66756795,0.11324447 2.99931868,0.11324447 L2.99931868,0.11324447 Z M1.9383423,14.3460153 L1.9383423,5.56956892 L0.441291061,5.56956892 L0.441291061,4.02120817 L3.87355487,4.02120817 L3.87355487,14.3460153 L1.9383423,14.3460153 L1.9383423,14.3460153 Z" id="path-7"></path>
        <path id="path-9" d="M0.609252907,12.4599801 L0.609252907,0.806094725 L2.54655196,0.806094725 L2.54655196,12.1531906 C2.54655196,12.7060295 2.71138408,13.1425355 3.04626453,13.461679 C3.38114499,13.7808225 3.81826308,13.9393647 4.35970531,13.9393647 L4.35970531,15.578321 C1.85905596,15.578321 0.609252907,14.5375014 0.609252907,12.4599801 L0.609252907,12.4599801 Z"></path>
        <path d="M5.63558939,2.27827283 C4.7790883,2.27827283 4.05925182,2.54388259 3.47920967,3.07201361 C2.92524855,3.57543676 2.61123292,4.20239932 2.53716279,4.95084231 L8.54310283,4.95084231 C8.54310283,4.20857629 8.29898437,3.5877907 7.81283394,3.09054453 C7.27973765,2.55005956 6.55364172,2.27827283 5.63558939,2.27827283 L5.63558939,2.27827283 Z M10.3030509,6.27477311 L2.48813045,6.27477311 C2.48813045,7.48442995 2.83448656,8.4120051 3.52824201,9.06264606 C4.14166788,9.62886841 4.92931504,9.91095009 5.89326999,9.91095009 C6.99075981,9.91095009 7.90672565,9.60416052 8.64012427,8.99161089 L9.44967951,10.3145122 C9.15235574,10.5996824 8.6964593,10.8447022 8.08303343,11.0526602 C7.31416461,11.324447 6.45662028,11.4603403 5.51248692,11.4603403 C4.15001381,11.4603403 2.99305923,11.0186869 2.04266642,10.137439 C0.981690044,9.16456608 0.452766715,7.8581367 0.452766715,6.21506239 C0.452766715,4.50918888 0.996295422,3.14098979 2.08439608,2.11046512 C3.05774019,1.19009643 4.20947856,0.728882587 5.53961119,0.728882587 C7.08673801,0.728882587 8.29898437,1.14479864 9.17843677,1.97560125 C10.0286784,2.77448951 10.4553641,3.83384005 10.4553641,5.15365286 C10.4553641,5.55927396 10.4042453,5.93298071 10.3030509,6.27477311 L10.3030509,6.27477311 Z" id="path-11"></path>
        <path d="M7.07317587,4.53698525 L4.76865589,10.7551361 L9.16487464,10.7551361 L7.07317587,4.53698525 L7.07317587,4.53698525 Z M10.7631203,15.156228 L9.74283031,12.1696625 L4.23242987,12.1696625 L3.13911301,15.156228 L0.859630814,15.156228 L6.88852217,0.8328616 L7.42892115,0.8328616 L13.0175647,15.156228 L10.7631203,15.156228 L10.7631203,15.156228 Z" id="path-13"></path>
        <path id="path-15" d="M0.805382267,12.2386387 L0.805382267,0.585782757 L2.74268132,0.585782757 L2.74268132,11.9318491 C2.74268132,12.486747 2.91064317,12.9222235 3.24448038,13.241367 C3.57831759,13.559481 4.01543568,13.7190528 4.55687791,13.7190528 L4.55687791,15.3580091 C2.05622856,15.3580091 0.805382267,14.3182189 0.805382267,12.2386387 L0.805382267,12.2386387 Z"></path>
        <path id="path-17" d="M0.46528561,12.2386387 L0.46528561,0.585782757 L2.40154142,0.585782757 L2.40154142,11.9318491 C2.40154142,12.486747 2.56950327,12.9222235 2.90334048,13.241367 C3.23822093,13.559481 3.67429578,13.7190528 4.21573801,13.7190528 L4.21573801,15.3580091 C1.71508866,15.3580091 0.46528561,14.3182189 0.46528561,12.2386387 L0.46528561,12.2386387 Z"></path>
        <path d="M3.01288081,0.92242768 C3.3435883,0.92242768 3.6242202,1.03464265 3.85790625,1.25598412 C4.08950581,1.47732558 4.20739208,1.74293534 4.20739208,2.0507544 C4.20739208,2.36680942 4.08950581,2.63550766 3.85790625,2.85787862 C3.6242202,3.07922008 3.3435883,3.19040556 3.01288081,3.19040556 C2.68738953,3.19040556 2.40988735,3.07922008 2.17724455,2.85787862 C1.94460174,2.63550766 1.8298452,2.36680942 1.8298452,2.0507544 C1.8298452,1.73675837 1.94251526,1.47011912 2.17307158,1.25083664 C2.40258467,1.03258366 2.68217333,0.92242768 3.01288081,0.92242768 L3.01288081,0.92242768 Z M1.55547275,15.156228 L1.55547275,6.37772263 L0.0615512355,6.37772263 L0.0615512355,4.82936188 L3.49172856,4.82936188 L3.49172856,15.156228 L1.55547275,15.156228 L1.55547275,15.156228 Z" id="path-19"></path>
        <path d="M7.05544077,5.96386557 C6.45244731,5.84444413 6.02784811,5.78473341 5.78477289,5.78473341 C4.81664499,5.78473341 4.0258681,6.02357629 3.41452871,6.49920306 C2.80318932,6.97585933 2.49751962,7.53899319 2.49751962,8.18963415 C2.49751962,9.26545661 3.15893459,9.80285309 4.48489426,9.80285309 C5.45197892,9.80285309 6.3105665,9.36119966 7.05544077,8.47892229 L7.05544077,5.96386557 L7.05544077,5.96386557 Z M7.23905124,9.86977028 C6.47018241,10.7829325 5.29340625,11.2400284 3.70767951,11.2400284 C2.85743786,11.2400284 2.11986628,10.9455927 1.49600799,10.3567215 C0.873192951,9.76785026 0.560220567,9.03587918 0.560220567,8.16080828 C0.560220567,7.1107232 1.0411548,6.22432785 2.00198001,5.50059274 C2.96280523,4.77685763 4.18965698,4.41550482 5.67940552,4.41550482 C6.08522638,4.41550482 6.5432093,4.49786444 7.05544077,4.66258366 C7.05544077,2.98553602 6.27300981,2.14752694 4.70710465,2.14752694 C3.5052907,2.14752694 2.58202217,2.455346 1.93416933,3.06789563 L1.1246141,1.54218378 C1.48870531,1.25804311 1.99467733,1.01611174 2.63940044,0.812271696 C3.28621003,0.609461146 3.90276562,0.508570618 4.49011047,0.508570618 C6.06436156,0.508570618 7.21088372,0.850363018 7.92341751,1.53188883 C8.63595131,2.21238514 8.99273983,3.29541407 8.99273983,4.78097561 L8.99273983,8.48304027 C8.99273983,9.39002552 9.27858794,9.99433919 9.8513274,10.2970108 L9.8513274,11.2173795 C9.06159375,11.2173795 8.47216243,11.112371 8.08199019,10.9033834 C7.68973147,10.6954254 7.40909956,10.3505445 7.23905124,9.86977028 L7.23905124,9.86977028 Z" id="path-21"></path>
        <path id="path-23" d="M7.04083539,11.0382473 L7.04083539,5.02805445 C7.04083539,3.9285536 6.86765734,3.1595207 6.51921475,2.71889677 C6.17077217,2.27827283 5.58760029,2.05796086 4.76969913,2.05796086 C4.33049455,2.05796086 3.87146839,2.18355927 3.39053416,2.4337266 C2.91064317,2.68492343 2.54342224,2.99377198 2.28574164,3.36027226 L2.28574164,11.0382473 L0.348442587,11.0382473 L0.348442587,0.711381168 L1.67022929,0.711381168 L2.28156868,2.04251843 C2.91794586,1.02022972 3.95805741,0.508570618 5.4008601,0.508570618 C7.78570967,0.508570618 8.97813445,1.88603517 8.97813445,4.63993477 L8.97813445,11.0382473 L7.04083539,11.0382473 L7.04083539,11.0382473 Z"></path>
        <path d="M5.56151926,2.05796086 C4.70293169,2.05796086 3.98518169,2.32254112 3.40305305,2.85067215 C2.85013517,3.35512479 2.53507631,3.98105786 2.46204942,4.72950085 L8.46694622,4.72950085 C8.46694622,3.98723483 8.22491424,3.36850822 7.73876381,2.87126205 C7.20566751,2.32871809 6.47852834,2.05796086 5.56151926,2.05796086 L5.56151926,2.05796086 Z M10.2268943,6.05343165 L2.41197384,6.05343165 C2.41197384,7.26308849 2.75832994,8.19272263 3.45312863,8.84130459 C4.06551126,9.40752694 4.85420167,9.69063812 5.81711337,9.69063812 C6.9146032,9.69063812 7.83161228,9.38384855 8.56709738,8.76923993 L9.37456613,10.0952297 C9.07724237,10.3793704 8.62238917,10.6243902 8.00792006,10.8313188 C7.23800799,11.1031055 6.38255015,11.2400284 5.43737355,11.2400284 C4.07490044,11.2400284 2.91794586,10.7983749 1.96650981,9.91712706 C0.907619913,8.94425411 0.377653343,7.63679524 0.377653343,5.99475043 C0.377653343,4.28887691 0.922225291,2.92067782 2.0092827,1.89118264 C2.98158358,0.969784458 4.13332195,0.508570618 5.46554106,0.508570618 C7.01162464,0.508570618 8.22491424,0.92448667 9.10228016,1.75425978 C9.95356504,2.55417754 10.3792075,3.61352808 10.3792075,4.9323114 C10.3792075,5.338962 10.3280887,5.71266875 10.2268943,6.05343165 L10.2268943,6.05343165 Z" id="path-25"></path>
        <path id="path-27" d="M3.30707485,3.10495746 C3.92884666,2.40695973 4.76865589,2.05796086 5.8254593,2.05796086 C6.30952326,2.05796086 6.80193314,2.14237947 7.30373219,2.31018718 C7.80448801,2.4779949 8.15501708,2.65712706 8.35114644,2.84346568 L9.3130149,1.54218378 C9.00004251,1.3033409 8.51389208,1.07170448 7.85352035,0.847274532 C7.68347202,0.789622802 7.51759666,0.739177538 7.35485102,0.695938741 C7.35380778,0.695938741 7.35172129,0.695938741 7.35067805,0.694909246 C7.14098656,0.640346001 6.93859775,0.601225184 6.73933866,0.571369824 C6.69134956,0.564163358 6.64336047,0.556956892 6.59537137,0.550779921 C6.39715552,0.526072036 6.2020694,0.508570618 6.01428597,0.508570618 C4.25538118,0.508570618 2.87204324,1.00787578 1.85905596,2.00545661 C0.84815516,3.00406693 0.34218314,4.32799773 0.34218314,5.97519002 C0.34218314,6.86776234 0.495539608,7.65429665 0.789733648,8.34302893 C1.37081904,7.8797561 1.9258234,7.40104084 2.45578997,6.90997164 C2.40675763,6.6186245 2.37754688,6.31080545 2.37754688,5.97519002 C2.37754688,4.76038571 2.68738953,3.80295519 3.30707485,3.10495746 L3.30707485,3.10495746 Z"></path>
        <path id="path-29" d="M3.84956032,1.45467669 C3.36340988,1.45467669 2.93359448,1.38364152 2.54029251,1.26319058 C2.0395367,1.68116563 1.52000254,2.08781622 0.985863009,2.48623086 C1.69213735,2.82905275 2.48813045,3.00406693 3.38114499,3.00406693 C4.90949346,3.00406693 6.19163699,2.68183494 7.22653234,2.03840045 L6.46705269,0.48901021 C5.58760029,1.13347419 4.71545058,1.45467669 3.84956032,1.45467669 L3.84956032,1.45467669 Z"></path>
        <path id="path-31" d="M32.631544,10.243477 C28.9948049,0.71961713 14.6345887,-2.34519002 0.556047602,3.39836358 L3.44999891,4.37123653 C15.7852838,0.249137833 27.4288997,4.19313386 29.4569608,13.1795973 C30.1767972,16.3700028 29.583193,19.7673369 27.9724284,23.0061288 C28.6380164,23.2408537 29.1356424,23.482785 29.4799121,23.7453063 L29.9191166,24.0798922 L28.2488874,26.3416931 L27.7815153,25.8990102 C27.7043154,25.8259161 27.4925374,25.6756098 26.9427493,25.4913301 C26.82069,25.4501503 26.7007173,25.4295604 26.5807445,25.399705 C23.2841021,30.3176035 17.6568586,34.6250113 10.7933743,36.9187266 L13.7217525,37.8843931 C27.8023801,32.1428985 36.2682831,19.7663074 32.631544,10.243477 L32.631544,10.243477 Z"></path>
        <path id="path-33" d="M32.631544,10.243477 C28.9948049,0.71961713 14.6345887,-2.34519002 0.556047602,3.39836358 L3.44999891,4.37123653 C15.7852838,0.249137833 27.4288997,4.19313386 29.4569608,13.1795973 C30.1767972,16.3700028 29.583193,19.7673369 27.9724284,23.0061288 C28.6380164,23.2408537 29.1356424,23.482785 29.4799121,23.7453063 L29.9191166,24.0798922 L28.2488874,26.3416931 L27.7815153,25.8990102 C27.7043154,25.8259161 27.4925374,25.6756098 26.9427493,25.4913301 C26.82069,25.4501503 26.7007173,25.4295604 26.5807445,25.399705 C23.2841021,30.3176035 17.6568586,34.6250113 10.7933743,36.9187266 L13.7217525,37.8843931 C27.8023801,32.1428985 36.2682831,19.7663074 32.631544,10.243477 L32.631544,10.243477 Z"></path>
        <path id="path-35" d="M5.1024931,8.91336926 L8.58483249,0.643434487 C5.07328234,3.66500284 2.44848728,7.14057856 0.963954942,10.6871894 L3.28412355,16.6314946 C3.17666969,14.0752581 3.82452253,11.4459274 5.1024931,8.91336926 L5.1024931,8.91336926 Z"></path>
        <path id="path-37" d="M29.5717173,6.03387124 C19.8925247,9.26854509 10.6421043,7.53487521 6.12591279,2.29680374 L6.54216606,3.36336075 L3.05356722,3.36336075 C3.05356722,3.36336075 2.23044985,0.958460011 2.03223401,0.377824731 L0.519534157,0.377824731 C4.29606759,9.72358196 18.5342246,12.698823 32.5000956,6.99953772 L29.5717173,6.03387124 L29.5717173,6.03387124 Z"></path>
        <path id="path-39" d="M29.5717173,6.03387124 C19.8925247,9.26854509 10.6421043,7.53487521 6.12591279,2.29680374 L6.54216606,3.36336075 L3.05356722,3.36336075 C3.05356722,3.36336075 2.23044985,0.958460011 2.03223401,0.377824731 L0.519534157,0.377824731 C4.29606759,9.72358196 18.5342246,12.698823 32.5000956,6.99953772 L29.5717173,6.03387124 L29.5717173,6.03387124 Z"></path>
        <path id="path-41" d="M1.22476526,1.02846568 L1.93416933,3.69794668 L0.657242006,3.69794668 C0.657242006,3.69794668 0.79912282,2.71374929 1.22476526,1.02846568 L1.22476526,1.02846568 Z"></path>
    </defs>
    <g id="Home" stroke="none" stroke-width="1" fill="none" fill-rule="evenodd" sketch:type="MSPage">
        <g id="Home---Desktop" sketch:type="MSArtboardGroup" transform="translate(-100.000000, -3490.000000)">
            <g id="FOOTER" sketch:type="MSLayerGroup" transform="translate(-4.000000, 3180.000000)">
                <g id="©-2015-Agile-Allianc-+-Logo---Blue-Txt-Copy-2-+-Lohgo---White" transform="translate(104.000000, 309.000000)">
                    <g id="Lohgo---White" transform="translate(0.000000, 0.779070)">
                        <g id="Group-3" transform="translate(20.864826, 3.088486)">
                            <mask id="mask-2" sketch:name="Clip 2" fill="white">
                                <use xlink:href="#path-1"></use>
                            </mask>
                            <g id="Clip-2"></g>
                            <path d="M-0.0208648256,0.226488939 L8.74236192,0.226488939 L8.74236192,5.1680658 L-0.0208648256,5.1680658 L-0.0208648256,0.226488939 Z" id="Fill-1" fill="#FFFFFF" sketch:type="MSShapeGroup" mask="url(#mask-2)"></path>
                        </g>
                        <g id="Group-6" transform="translate(12.518895, 4.117981)">
                            <mask id="mask-4" sketch:name="Clip 5" fill="white">
                                <use xlink:href="#path-3"></use>
                            </mask>
                            <g id="Clip-5"></g>
                            <path d="M0.312972384,-0.0617697107 L12.5814898,-0.0617697107 L12.5814898,14.3923426 L0.312972384,14.3923426 L0.312972384,-0.0617697107 Z" id="Fill-4" fill="#FFFFFE" sketch:type="MSShapeGroup" mask="url(#mask-4)"></path>
                        </g>
                        <g id="Group-9" transform="translate(23.994549, 7.206466)">
                            <mask id="mask-6" sketch:name="Clip 8" fill="white">
                                <use xlink:href="#path-5"></use>
                            </mask>
                            <g id="Clip-8"></g>
                            <path d="M0.605079942,0.185309132 L9.74387355,0.185309132 L9.74387355,15.380658 L0.605079942,15.380658 L0.605079942,0.185309132 Z" id="Fill-7" fill="#FFFFFE" sketch:type="MSShapeGroup" mask="url(#mask-6)"></path>
                        </g>
                        <g id="Group-12" transform="translate(33.383721, 4.117981)">
                            <mask id="mask-8" sketch:name="Clip 11" fill="white">
                                <use xlink:href="#path-7"></use>
                            </mask>
                            <g id="Clip-11"></g>
                            <path d="M0.354702035,0.0617697107 L4.23555959,0.0617697107 L4.23555959,14.3923426 L0.354702035,14.3923426 L0.354702035,0.0617697107 Z" id="Fill-10" fill="#FFFFFE" sketch:type="MSShapeGroup" mask="url(#mask-8)"></path>
                        </g>
                        <g id="Group-15" transform="translate(38.599927, 3.088486)">
                            <mask id="mask-10" sketch:name="Clip 14" fill="white">
                                <use xlink:href="#path-9"></use>
                            </mask>
                            <g id="Clip-14"></g>
                            <path d="M0.52162064,0.720646625 L4.4024782,0.720646625 L4.4024782,15.6689166 L0.52162064,15.6689166 L0.52162064,0.720646625 Z" id="Fill-13" fill="#FFFFFE" sketch:type="MSShapeGroup" mask="url(#mask-10)"></path>
                        </g>
                        <g id="Group-18" transform="translate(42.772892, 7.206466)">
                            <mask id="mask-12" sketch:name="Clip 17" fill="white">
                                <use xlink:href="#path-11"></use>
                            </mask>
                            <g id="Clip-17"></g>
                            <path d="M0.354702035,0.679466818 L10.4950073,0.679466818 L10.4950073,11.5509359 L0.354702035,11.5509359 L0.354702035,0.679466818 Z" id="Fill-16" fill="#FFFFFE" sketch:type="MSShapeGroup" mask="url(#mask-12)"></path>
                        </g>
                        <g id="Group-21" transform="translate(0.000000, 18.530913)">
                            <mask id="mask-14" sketch:name="Clip 20" fill="white">
                                <use xlink:href="#path-13"></use>
                            </mask>
                            <g id="Clip-20"></g>
                            <path d="M0.813728198,0.720646625 L13.0822456,0.720646625 L13.0822456,15.1747589 L0.813728198,15.1747589 L0.813728198,0.720646625 Z" id="Fill-19" fill="#FFFFFE" sketch:type="MSShapeGroup" mask="url(#mask-14)"></path>
                        </g>
                        <g id="Group-24" transform="translate(12.518895, 18.530913)">
                            <mask id="mask-16" sketch:name="Clip 23" fill="white">
                                <use xlink:href="#path-15"></use>
                            </mask>
                            <g id="Clip-23"></g>
                            <path d="M0.688539244,0.473567782 L4.5693968,0.473567782 L4.5693968,15.4218378 L0.688539244,15.4218378 L0.688539244,0.473567782 Z" id="Fill-22" fill="#FFFFFE" sketch:type="MSShapeGroup" mask="url(#mask-16)"></path>
                        </g>
                        <g id="Group-27" transform="translate(17.735102, 18.530913)">
                            <mask id="mask-18" sketch:name="Clip 26" fill="white">
                                <use xlink:href="#path-17"></use>
                            </mask>
                            <g id="Clip-26"></g>
                            <path d="M0.354702035,0.473567782 L4.23555959,0.473567782 L4.23555959,15.4218378 L0.354702035,15.4218378 L0.354702035,0.473567782 Z" id="Fill-25" fill="#FFFFFE" sketch:type="MSShapeGroup" mask="url(#mask-18)"></path>
                        </g>
                        <g id="Group-30" transform="translate(21.908067, 18.530913)">
                            <mask id="mask-20" sketch:name="Clip 29" fill="white">
                                <use xlink:href="#path-19"></use>
                            </mask>
                            <g id="Clip-29"></g>
                            <path d="M-0.0625944767,0.844186047 L4.3190189,0.844186047 L4.3190189,15.1747589 L-0.0625944767,15.1747589 L-0.0625944767,0.844186047 Z" id="Fill-28" fill="#FFFFFE" sketch:type="MSShapeGroup" mask="url(#mask-20)"></path>
                        </g>
                        <g id="Group-33" transform="translate(26.081032, 22.648894)">
                            <mask id="mask-22" sketch:name="Clip 32" fill="white">
                                <use xlink:href="#path-21"></use>
                            </mask>
                            <g id="Clip-32"></g>
                            <path d="M0.52162064,0.432387975 L9.91079215,0.432387975 L9.91079215,11.3038571 L0.52162064,11.3038571 L0.52162064,0.432387975 Z" id="Fill-31" fill="#FFFFFE" sketch:type="MSShapeGroup" mask="url(#mask-22)"></path>
                        </g>
                        <g id="Group-36" transform="translate(36.513445, 22.648894)">
                            <mask id="mask-24" sketch:name="Clip 35" fill="white">
                                <use xlink:href="#path-23"></use>
                            </mask>
                            <g id="Clip-35"></g>
                            <path d="M0.229513081,0.432387975 L8.99273983,0.432387975 L8.99273983,11.0567782 L0.229513081,11.0567782 L0.229513081,0.432387975 Z" id="Fill-34" fill="#FFFFFE" sketch:type="MSShapeGroup" mask="url(#mask-24)"></path>
                        </g>
                        <g id="Group-39" transform="translate(55.291788, 22.648894)">
                            <mask id="mask-26" sketch:name="Clip 38" fill="white">
                                <use xlink:href="#path-25"></use>
                            </mask>
                            <g id="Clip-38"></g>
                            <path d="M0.354702035,0.432387975 L10.4950073,0.432387975 L10.4950073,11.3038571 L0.354702035,11.3038571 L0.354702035,0.432387975 Z" id="Fill-37" fill="#FFFFFE" sketch:type="MSShapeGroup" mask="url(#mask-26)"></path>
                        </g>
                        <g id="Group-42" transform="translate(45.902616, 22.648894)">
                            <mask id="mask-28" sketch:name="Clip 41" fill="white">
                                <use xlink:href="#path-27"></use>
                            </mask>
                            <g id="Clip-41"></g>
                            <path d="M0.229513081,0.432387975 L9.36830669,0.432387975 L9.36830669,8.46245037 L0.229513081,8.46245037 L0.229513081,0.432387975 Z" id="Fill-40" fill="#FFFFFE" sketch:type="MSShapeGroup" mask="url(#mask-28)"></path>
                        </g>
                        <g id="Group-45" transform="translate(47.989099, 30.884855)">
                            <mask id="mask-30" sketch:name="Clip 44" fill="white">
                                <use xlink:href="#path-29"></use>
                            </mask>
                            <g id="Clip-44"></g>
                            <path d="M0.8971875,0.473567782 L7.28182413,0.473567782 L7.28182413,3.06789563 L0.8971875,3.06789563 L0.8971875,0.473567782 Z" id="Fill-43" fill="#FFFFFE" sketch:type="MSShapeGroup" mask="url(#mask-30)"></path>
                        </g>
                        <path d="M58.7125759,10.243477 C55.0758368,0.71961713 40.7156206,-2.34519002 26.6370796,3.39836358 L29.5310309,4.37123653 C41.8663158,0.249137833 53.5099317,4.19313386 55.5379927,13.1795973 C56.2578292,16.3700028 55.6642249,19.7673369 54.0534604,23.0061288 C54.7190483,23.2408537 55.2166744,23.482785 55.560944,23.7453063 L56.0001486,24.0798922 L54.3299193,26.3416931 L53.8625472,25.8990102 C53.7853474,25.8259161 53.5735694,25.6756098 53.0237813,25.4913301 C52.901722,25.4501503 52.7817493,25.4295604 52.6617765,25.399705 C49.3651341,30.3176035 43.7378906,34.6250113 36.8744063,36.9187266 L39.8027845,37.8843931 C53.8834121,32.1428985 62.349315,19.7663074 58.7125759,10.243477" id="Fill-46" fill="#FFFFFF" sketch:type="MSShapeGroup"></path>
                        <g id="Group-50" transform="translate(26.081032, 0.000000)">
                            <mask id="mask-32" sketch:name="Clip 49" fill="white">
                                <use xlink:href="#path-31"></use>
                            </mask>
                            <g id="Clip-49"></g>
                            <path d="M0.52162064,0.473567782 L33.4463154,0.473567782 L33.4463154,37.9060125 L0.52162064,37.9060125 L0.52162064,0.473567782 Z" id="Fill-48" fill="#FFFFFF" sketch:type="MSShapeGroup" mask="url(#mask-32)"></path>
                        </g>
                        <g id="Group-53" transform="translate(26.081032, 0.000000)">
                            <mask id="mask-34" sketch:name="Clip 52" fill="white">
                                <use xlink:href="#path-33"></use>
                            </mask>
                            <g id="Clip-52"></g>
                            <path d="M0.52162064,0.473567782 L33.4463154,0.473567782 L33.4463154,37.9060125 L0.52162064,37.9060125 L0.52162064,0.473567782 Z" id="Fill-51" fill="#FFFFFF" sketch:type="MSShapeGroup" mask="url(#mask-34)"></path>
                        </g>
                        <g id="Group-56" transform="translate(7.302689, 9.265457)">
                            <mask id="mask-36" sketch:name="Clip 55" fill="white">
                                <use xlink:href="#path-35"></use>
                            </mask>
                            <g id="Clip-55"></g>
                            <path d="M0.8971875,0.597107204 L8.65890262,0.597107204 L8.65890262,16.657232 L0.8971875,16.657232 L0.8971875,0.597107204 Z" id="Fill-54" fill="#FFFFFF" sketch:type="MSShapeGroup" mask="url(#mask-36)"></path>
                        </g>
                        <path d="M36.8744063,36.9187266 C27.1952137,40.1534005 17.9447932,38.4197306 13.4286017,33.1816591 L13.844855,34.2482161 L10.3562562,34.2482161 C10.3562562,34.2482161 9.53313881,31.8433154 9.33492297,31.2626801 L7.82222311,31.2626801 C11.5987565,40.6084373 25.8369135,43.5836784 39.8027845,37.8843931 L36.8744063,36.9187266" id="Fill-57" fill="#FFFFFF" sketch:type="MSShapeGroup"></path>
                        <g id="Group-61" transform="translate(7.302689, 30.884855)">
                            <mask id="mask-38" sketch:name="Clip 60" fill="white">
                                <use xlink:href="#path-37"></use>
                            </mask>
                            <g id="Clip-60"></g>
                            <path d="M0.396431686,0.350028361 L32.5699927,0.350028361 L32.5699927,9.98610323 L0.396431686,9.98610323 L0.396431686,0.350028361 Z" id="Fill-59" fill="#FFFFFF" sketch:type="MSShapeGroup" mask="url(#mask-38)"></path>
                        </g>
                        <g id="Group-64" transform="translate(7.302689, 30.884855)">
                            <mask id="mask-40" sketch:name="Clip 63" fill="white">
                                <use xlink:href="#path-39"></use>
                            </mask>
                            <g id="Clip-63"></g>
                            <path d="M0.396431686,0.350028361 L32.5699927,0.350028361 L32.5699927,9.98610323 L0.396431686,9.98610323 L0.396431686,0.350028361 Z" id="Fill-62" fill="#FFFFFF" sketch:type="MSShapeGroup" mask="url(#mask-40)"></path>
                        </g>
                        <g id="Group-67" transform="translate(6.259448, 24.707884)">
                            <mask id="mask-42" sketch:name="Clip 66" fill="white">
                                <use xlink:href="#path-41"></use>
                            </mask>
                            <g id="Clip-66"></g>
                            <path d="M0.563350291,0.967725468 L1.94042878,0.967725468 L1.94042878,3.80913216 L0.563350291,3.80913216 L0.563350291,0.967725468 Z" id="Fill-65" fill="#FFFFFF" sketch:type="MSShapeGroup" mask="url(#mask-42)"></path>
                        </g>
                    </g>
                </g>
            </g>
        </g>
    </g>
</svg>